<mxfile host="app.diagrams.net" modified="2022-12-25T16:30:09.279Z" agent="5.0 (Windows NT 10.0; Win64; x64) AppleWebKit/537.36 (KHTML, like Gecko) Chrome/108.0.0.0 Safari/537.36" version="20.7.4" etag="nLLBHYaNSSKC65TJpKh-" type="github">
  <diagram id="Gu_f-95HG_TEApZ6MIHH" name="Страница 1">
    <mxGraphModel dx="880" dy="452" grid="1" gridSize="10" guides="1" tooltips="1" connect="1" arrows="1" fold="1" page="1" pageScale="1" pageWidth="827" pageHeight="1169" math="0" shadow="0">
      <root>
        <mxCell id="0" />
        <mxCell id="1" parent="0" />
        <mxCell id="Ar625f8QCVpaPkHbd-zj-1" value="" style="ellipse;html=1;shape=startState;fillColor=#000000;strokeColor=#ff0000;" vertex="1" parent="1">
          <mxGeometry x="340" y="40" width="30" height="30" as="geometry" />
        </mxCell>
        <mxCell id="Ar625f8QCVpaPkHbd-zj-2" value="" style="edgeStyle=orthogonalEdgeStyle;html=1;verticalAlign=bottom;endArrow=open;endSize=8;strokeColor=#ff0000;rounded=0;" edge="1" source="Ar625f8QCVpaPkHbd-zj-1" parent="1">
          <mxGeometry relative="1" as="geometry">
            <mxPoint x="355" y="130" as="targetPoint" />
          </mxGeometry>
        </mxCell>
        <mxCell id="Ar625f8QCVpaPkHbd-zj-3" value="" style="ellipse;html=1;shape=endState;fillColor=#000000;strokeColor=#ff0000;" vertex="1" parent="1">
          <mxGeometry x="750" y="495" width="30" height="30" as="geometry" />
        </mxCell>
        <mxCell id="Ar625f8QCVpaPkHbd-zj-8" style="edgeStyle=orthogonalEdgeStyle;rounded=0;orthogonalLoop=1;jettySize=auto;html=1;exitX=0.5;exitY=1;exitDx=0;exitDy=0;entryX=0.5;entryY=0;entryDx=0;entryDy=0;" edge="1" parent="1" source="Ar625f8QCVpaPkHbd-zj-4" target="Ar625f8QCVpaPkHbd-zj-7">
          <mxGeometry relative="1" as="geometry" />
        </mxCell>
        <mxCell id="Ar625f8QCVpaPkHbd-zj-4" value="бежим за маршруткой" style="rounded=1;whiteSpace=wrap;html=1;" vertex="1" parent="1">
          <mxGeometry x="295" y="130" width="120" height="60" as="geometry" />
        </mxCell>
        <mxCell id="Ar625f8QCVpaPkHbd-zj-15" style="edgeStyle=orthogonalEdgeStyle;rounded=0;orthogonalLoop=1;jettySize=auto;html=1;exitX=0.5;exitY=1;exitDx=0;exitDy=0;" edge="1" parent="1" source="Ar625f8QCVpaPkHbd-zj-5" target="Ar625f8QCVpaPkHbd-zj-14">
          <mxGeometry relative="1" as="geometry" />
        </mxCell>
        <mxCell id="Ar625f8QCVpaPkHbd-zj-5" value="вызываем такси" style="rounded=1;whiteSpace=wrap;html=1;" vertex="1" parent="1">
          <mxGeometry x="295" y="370" width="120" height="60" as="geometry" />
        </mxCell>
        <mxCell id="Ar625f8QCVpaPkHbd-zj-23" style="edgeStyle=orthogonalEdgeStyle;rounded=0;orthogonalLoop=1;jettySize=auto;html=1;exitX=1;exitY=0.5;exitDx=0;exitDy=0;" edge="1" parent="1" source="Ar625f8QCVpaPkHbd-zj-6" target="Ar625f8QCVpaPkHbd-zj-3">
          <mxGeometry relative="1" as="geometry" />
        </mxCell>
        <mxCell id="Ar625f8QCVpaPkHbd-zj-6" value="едем домой на маршрутке" style="rounded=1;whiteSpace=wrap;html=1;" vertex="1" parent="1">
          <mxGeometry x="530" y="240" width="120" height="60" as="geometry" />
        </mxCell>
        <mxCell id="Ar625f8QCVpaPkHbd-zj-10" style="edgeStyle=orthogonalEdgeStyle;rounded=0;orthogonalLoop=1;jettySize=auto;html=1;entryX=0;entryY=0.5;entryDx=0;entryDy=0;" edge="1" parent="1" source="Ar625f8QCVpaPkHbd-zj-7" target="Ar625f8QCVpaPkHbd-zj-6">
          <mxGeometry relative="1" as="geometry" />
        </mxCell>
        <mxCell id="Ar625f8QCVpaPkHbd-zj-12" style="edgeStyle=orthogonalEdgeStyle;rounded=0;orthogonalLoop=1;jettySize=auto;html=1;exitX=0.5;exitY=1;exitDx=0;exitDy=0;" edge="1" parent="1" source="Ar625f8QCVpaPkHbd-zj-7" target="Ar625f8QCVpaPkHbd-zj-5">
          <mxGeometry relative="1" as="geometry" />
        </mxCell>
        <mxCell id="Ar625f8QCVpaPkHbd-zj-7" value="условие" style="rhombus;whiteSpace=wrap;html=1;" vertex="1" parent="1">
          <mxGeometry x="315" y="230" width="80" height="80" as="geometry" />
        </mxCell>
        <mxCell id="Ar625f8QCVpaPkHbd-zj-11" value="догнали" style="text;html=1;align=center;verticalAlign=middle;resizable=0;points=[];autosize=1;strokeColor=none;fillColor=none;" vertex="1" parent="1">
          <mxGeometry x="415" y="245" width="70" height="30" as="geometry" />
        </mxCell>
        <mxCell id="Ar625f8QCVpaPkHbd-zj-13" value="не догнали" style="text;html=1;align=center;verticalAlign=middle;resizable=0;points=[];autosize=1;strokeColor=none;fillColor=none;" vertex="1" parent="1">
          <mxGeometry x="350" y="320" width="90" height="30" as="geometry" />
        </mxCell>
        <mxCell id="Ar625f8QCVpaPkHbd-zj-17" style="edgeStyle=orthogonalEdgeStyle;rounded=0;orthogonalLoop=1;jettySize=auto;html=1;exitX=1;exitY=0.5;exitDx=0;exitDy=0;entryX=0;entryY=0.5;entryDx=0;entryDy=0;" edge="1" parent="1" source="Ar625f8QCVpaPkHbd-zj-14" target="Ar625f8QCVpaPkHbd-zj-16">
          <mxGeometry relative="1" as="geometry" />
        </mxCell>
        <mxCell id="Ar625f8QCVpaPkHbd-zj-20" style="edgeStyle=orthogonalEdgeStyle;rounded=0;orthogonalLoop=1;jettySize=auto;html=1;exitX=0.5;exitY=1;exitDx=0;exitDy=0;entryX=0.5;entryY=0;entryDx=0;entryDy=0;" edge="1" parent="1" source="Ar625f8QCVpaPkHbd-zj-14" target="Ar625f8QCVpaPkHbd-zj-19">
          <mxGeometry relative="1" as="geometry" />
        </mxCell>
        <mxCell id="Ar625f8QCVpaPkHbd-zj-14" value="условие" style="rhombus;whiteSpace=wrap;html=1;" vertex="1" parent="1">
          <mxGeometry x="315" y="470" width="80" height="80" as="geometry" />
        </mxCell>
        <mxCell id="Ar625f8QCVpaPkHbd-zj-24" style="edgeStyle=orthogonalEdgeStyle;rounded=0;orthogonalLoop=1;jettySize=auto;html=1;exitX=1;exitY=0.5;exitDx=0;exitDy=0;" edge="1" parent="1" source="Ar625f8QCVpaPkHbd-zj-16" target="Ar625f8QCVpaPkHbd-zj-3">
          <mxGeometry relative="1" as="geometry" />
        </mxCell>
        <mxCell id="Ar625f8QCVpaPkHbd-zj-16" value="едем домой на такси" style="rounded=1;whiteSpace=wrap;html=1;" vertex="1" parent="1">
          <mxGeometry x="485" y="480" width="120" height="60" as="geometry" />
        </mxCell>
        <mxCell id="Ar625f8QCVpaPkHbd-zj-18" value="вызвали такси" style="text;html=1;align=center;verticalAlign=middle;resizable=0;points=[];autosize=1;strokeColor=none;fillColor=none;" vertex="1" parent="1">
          <mxGeometry x="380" y="475" width="100" height="30" as="geometry" />
        </mxCell>
        <mxCell id="Ar625f8QCVpaPkHbd-zj-25" style="edgeStyle=orthogonalEdgeStyle;rounded=0;orthogonalLoop=1;jettySize=auto;html=1;exitX=1;exitY=0.5;exitDx=0;exitDy=0;entryX=0.5;entryY=1;entryDx=0;entryDy=0;" edge="1" parent="1" source="Ar625f8QCVpaPkHbd-zj-19" target="Ar625f8QCVpaPkHbd-zj-3">
          <mxGeometry relative="1" as="geometry" />
        </mxCell>
        <mxCell id="Ar625f8QCVpaPkHbd-zj-19" value="идем домой пешком" style="rounded=1;whiteSpace=wrap;html=1;" vertex="1" parent="1">
          <mxGeometry x="295" y="620" width="120" height="60" as="geometry" />
        </mxCell>
        <mxCell id="Ar625f8QCVpaPkHbd-zj-21" value="не удалось вызвать такси" style="text;html=1;align=center;verticalAlign=middle;resizable=0;points=[];autosize=1;strokeColor=none;fillColor=none;" vertex="1" parent="1">
          <mxGeometry x="350" y="565" width="170" height="30" as="geometry" />
        </mxCell>
        <mxCell id="Ar625f8QCVpaPkHbd-zj-26" value="добрался домой" style="text;html=1;align=center;verticalAlign=middle;resizable=0;points=[];autosize=1;strokeColor=none;fillColor=none;" vertex="1" parent="1">
          <mxGeometry x="640" y="465" width="120" height="30" as="geometry" />
        </mxCell>
        <mxCell id="Ar625f8QCVpaPkHbd-zj-28" value="посетитель" style="shape=umlFrame;whiteSpace=wrap;html=1;width=120;height=30;boundedLbl=1;verticalAlign=middle;align=left;spacingLeft=5;" vertex="1" parent="1">
          <mxGeometry x="30" y="760" width="250" height="320" as="geometry" />
        </mxCell>
        <mxCell id="Ar625f8QCVpaPkHbd-zj-29" value="официант" style="shape=umlFrame;whiteSpace=wrap;html=1;width=120;height=30;boundedLbl=1;verticalAlign=middle;align=left;spacingLeft=5;" vertex="1" parent="1">
          <mxGeometry x="280" y="760" width="250" height="320" as="geometry" />
        </mxCell>
        <mxCell id="Ar625f8QCVpaPkHbd-zj-30" value="повар" style="shape=umlFrame;whiteSpace=wrap;html=1;width=120;height=30;boundedLbl=1;verticalAlign=middle;align=left;spacingLeft=5;" vertex="1" parent="1">
          <mxGeometry x="530" y="760" width="260" height="320" as="geometry" />
        </mxCell>
        <mxCell id="Ar625f8QCVpaPkHbd-zj-34" value="" style="ellipse;html=1;shape=startState;fillColor=#000000;strokeColor=#ff0000;" vertex="1" parent="1">
          <mxGeometry x="10" y="710" width="30" height="30" as="geometry" />
        </mxCell>
        <mxCell id="Ar625f8QCVpaPkHbd-zj-35" value="" style="edgeStyle=orthogonalEdgeStyle;html=1;verticalAlign=bottom;endArrow=open;endSize=8;strokeColor=#ff0000;rounded=0;" edge="1" source="Ar625f8QCVpaPkHbd-zj-34" parent="1" target="Ar625f8QCVpaPkHbd-zj-36">
          <mxGeometry relative="1" as="geometry">
            <mxPoint x="420" y="990" as="targetPoint" />
            <Array as="points">
              <mxPoint x="10" y="840" />
            </Array>
          </mxGeometry>
        </mxCell>
        <mxCell id="Ar625f8QCVpaPkHbd-zj-38" style="edgeStyle=orthogonalEdgeStyle;rounded=0;orthogonalLoop=1;jettySize=auto;html=1;exitX=1;exitY=0.5;exitDx=0;exitDy=0;" edge="1" parent="1" source="Ar625f8QCVpaPkHbd-zj-36" target="Ar625f8QCVpaPkHbd-zj-37">
          <mxGeometry relative="1" as="geometry" />
        </mxCell>
        <mxCell id="Ar625f8QCVpaPkHbd-zj-36" value="заказать еду и напиток" style="rounded=1;whiteSpace=wrap;html=1;" vertex="1" parent="1">
          <mxGeometry x="70" y="820" width="120" height="60" as="geometry" />
        </mxCell>
        <mxCell id="Ar625f8QCVpaPkHbd-zj-43" style="edgeStyle=orthogonalEdgeStyle;rounded=0;orthogonalLoop=1;jettySize=auto;html=1;exitX=0.5;exitY=1;exitDx=0;exitDy=0;" edge="1" parent="1" source="Ar625f8QCVpaPkHbd-zj-37">
          <mxGeometry relative="1" as="geometry">
            <mxPoint x="390" y="900" as="targetPoint" />
          </mxGeometry>
        </mxCell>
        <mxCell id="Ar625f8QCVpaPkHbd-zj-37" value="принять заказ" style="rounded=1;whiteSpace=wrap;html=1;" vertex="1" parent="1">
          <mxGeometry x="330" y="820" width="120" height="60" as="geometry" />
        </mxCell>
        <mxCell id="Ar625f8QCVpaPkHbd-zj-40" value="" style="endArrow=none;startArrow=none;endFill=0;startFill=0;endSize=8;html=1;verticalAlign=bottom;labelBackgroundColor=none;strokeWidth=3;rounded=0;" edge="1" parent="1">
          <mxGeometry width="160" relative="1" as="geometry">
            <mxPoint x="325" y="900" as="sourcePoint" />
            <mxPoint x="500" y="900" as="targetPoint" />
            <Array as="points">
              <mxPoint x="420" y="900" />
            </Array>
          </mxGeometry>
        </mxCell>
        <mxCell id="Ar625f8QCVpaPkHbd-zj-41" value="готовить еду" style="rounded=1;whiteSpace=wrap;html=1;" vertex="1" parent="1">
          <mxGeometry x="560" y="920" width="120" height="60" as="geometry" />
        </mxCell>
        <mxCell id="Ar625f8QCVpaPkHbd-zj-42" value="" style="endArrow=classic;html=1;rounded=0;" edge="1" parent="1" target="Ar625f8QCVpaPkHbd-zj-41">
          <mxGeometry width="50" height="50" relative="1" as="geometry">
            <mxPoint x="500" y="900" as="sourcePoint" />
            <mxPoint x="430" y="890" as="targetPoint" />
          </mxGeometry>
        </mxCell>
        <mxCell id="Ar625f8QCVpaPkHbd-zj-47" style="edgeStyle=orthogonalEdgeStyle;rounded=0;orthogonalLoop=1;jettySize=auto;html=1;exitX=0;exitY=0.5;exitDx=0;exitDy=0;entryX=1.042;entryY=0.617;entryDx=0;entryDy=0;entryPerimeter=0;" edge="1" parent="1" source="Ar625f8QCVpaPkHbd-zj-44" target="Ar625f8QCVpaPkHbd-zj-46">
          <mxGeometry relative="1" as="geometry" />
        </mxCell>
        <mxCell id="Ar625f8QCVpaPkHbd-zj-44" value="приготовить и подать напиток" style="rounded=1;whiteSpace=wrap;html=1;" vertex="1" parent="1">
          <mxGeometry x="335" y="970" width="120" height="40" as="geometry" />
        </mxCell>
        <mxCell id="Ar625f8QCVpaPkHbd-zj-45" value="" style="endArrow=classic;html=1;rounded=0;entryX=0.5;entryY=0;entryDx=0;entryDy=0;" edge="1" parent="1" target="Ar625f8QCVpaPkHbd-zj-44">
          <mxGeometry width="50" height="50" relative="1" as="geometry">
            <mxPoint x="390" y="900" as="sourcePoint" />
            <mxPoint x="310" y="880" as="targetPoint" />
          </mxGeometry>
        </mxCell>
        <mxCell id="Ar625f8QCVpaPkHbd-zj-46" value="пить напиток" style="rounded=1;whiteSpace=wrap;html=1;" vertex="1" parent="1">
          <mxGeometry x="95" y="940" width="120" height="60" as="geometry" />
        </mxCell>
        <mxCell id="Ar625f8QCVpaPkHbd-zj-50" style="edgeStyle=orthogonalEdgeStyle;rounded=0;orthogonalLoop=1;jettySize=auto;html=1;exitX=0;exitY=0.5;exitDx=0;exitDy=0;entryX=1;entryY=0.5;entryDx=0;entryDy=0;" edge="1" parent="1" source="Ar625f8QCVpaPkHbd-zj-48" target="Ar625f8QCVpaPkHbd-zj-49">
          <mxGeometry relative="1" as="geometry" />
        </mxCell>
        <mxCell id="Ar625f8QCVpaPkHbd-zj-48" value="передать официанту" style="rounded=1;whiteSpace=wrap;html=1;" vertex="1" parent="1">
          <mxGeometry x="560" y="1000" width="120" height="60" as="geometry" />
        </mxCell>
        <mxCell id="Ar625f8QCVpaPkHbd-zj-52" style="edgeStyle=orthogonalEdgeStyle;rounded=0;orthogonalLoop=1;jettySize=auto;html=1;exitX=0;exitY=0.5;exitDx=0;exitDy=0;entryX=1;entryY=0.5;entryDx=0;entryDy=0;" edge="1" parent="1" source="Ar625f8QCVpaPkHbd-zj-49" target="Ar625f8QCVpaPkHbd-zj-51">
          <mxGeometry relative="1" as="geometry" />
        </mxCell>
        <mxCell id="Ar625f8QCVpaPkHbd-zj-49" value="подать еду" style="rounded=1;whiteSpace=wrap;html=1;" vertex="1" parent="1">
          <mxGeometry x="330" y="1020" width="120" height="60" as="geometry" />
        </mxCell>
        <mxCell id="Ar625f8QCVpaPkHbd-zj-54" style="edgeStyle=orthogonalEdgeStyle;rounded=0;orthogonalLoop=1;jettySize=auto;html=1;exitX=0;exitY=0.5;exitDx=0;exitDy=0;" edge="1" parent="1" source="Ar625f8QCVpaPkHbd-zj-51" target="Ar625f8QCVpaPkHbd-zj-53">
          <mxGeometry relative="1" as="geometry" />
        </mxCell>
        <mxCell id="Ar625f8QCVpaPkHbd-zj-51" value="съесть еду" style="rounded=1;whiteSpace=wrap;html=1;" vertex="1" parent="1">
          <mxGeometry x="95" y="1010" width="120" height="60" as="geometry" />
        </mxCell>
        <mxCell id="Ar625f8QCVpaPkHbd-zj-53" value="" style="ellipse;html=1;shape=endState;fillColor=#000000;strokeColor=#ff0000;" vertex="1" parent="1">
          <mxGeometry y="1025" width="30" height="30" as="geometry" />
        </mxCell>
      </root>
    </mxGraphModel>
  </diagram>
</mxfile>
